<?xml version="1.0" encoding="UTF-8"?>
<svg id="Layer_1" data-name="Layer 1" xmlns="http://www.w3.org/2000/svg" viewBox="0 0 601.11 694.94">
  <defs>
    <style>
      .cls-1 {
        fill: #9cc352;
      }

      .cls-2 {
        fill: #919191;
      }

      .cls-3 {
        fill: #020202;
      }

      .cls-4 {
        fill: #f0f0f0;
      }

      .cls-5 {
        fill: #f2f2f2;
      }

      .cls-6 {
        fill: #060505;
      }
    </style>
  </defs>
  <path class="cls-3" d="M600.43,15.15l-.49,168.89-.17,496.65c0,7.04-8.25,14.26-15.03,14.25l-570.43-.07c-7.16,0-14.28-9.24-14.28-16.11L0,17.31C0,12.28,3.89,6.17,7.19,4.65L17.36,0l566.93.21c7.39,0,16.11,8.43,16.14,14.95ZM142.24,98.58c6.72-.02,13.49-3.43,16.91-8.08,5.15-6.98,4.4-15.26,4.36-23.46-.04-9,1.45-18.41-3.35-26.52-3.89-6.57-12.72-9.82-20.54-9.86l-59.5-.3-9.84,2.03c-9.9,2.04-14.99,10.92-14.95,20.62l.07,20.07c.02,6.94.23,13.93,5.6,19.12,3.88,3.74,10.15,6.57,16.05,6.56l65.19-.17ZM297.59,60.49c2.6-6.51,1.79-14.54-.94-20.27-2.53-5.3-12.57-9.8-19.76-9.81l-86.79-.18-.03,68.64,15.31-.18.67-25.54,72.93-.34c7.64-.04,15.61-4.78,18.62-12.32ZM419.26,70.7l.22-12.41-51.51.14-30.87-.17c-1.67-3.61-1-8.26,1.34-10.89,1.68-1.89,5.2-4.29,8.96-4.31l77.86-.31.24-12.48-77.51.09c-5.81,0-12.25.91-16.88,3.75-4.98,3.05-9.76,8.24-9.81,13.98l-.26,30.06c-.1,11.34,8.69,20.27,20.64,20.35l83.2.57-.03-12.92-74.79.19c-4.78.01-8.92-.15-11.4-3.72-2.22-3.2-3.74-8.58-.93-11.74l81.55-.18ZM517.33,43.06c6.96.03,13.07,5.47,13.09,11.89l.11,43.76,15.37.16-.34-46.66c-.06-8.44-6.01-16.2-13.64-18.94-9.86-3.54-19.68-2.77-29.95-2.76l-27.71.04c-12.52.02-25.91,8.92-25.94,22.48l-.11,45.84,15.43-.2.38-43.71c.06-7.2,7.87-12.12,14.96-12.09l38.36.18ZM574.85,437.02v-46.23s-55.6.15-55.6.15c-11.7-.77-21.86-4.11-31.66-10.7l-136.9-89.49,157.22-105.54c8.47-6.77,18.52-9.39,29.05-11.36l38.71-.08.18-44.57-87.8.28c-12.01.04-22.66,5.56-33.06,10.53l-52.32,34.98-114.66,75.94-107.26-69.52-67.63-43.34c-10.29-4.35-19.87-8.74-31.15-8.78l-53.84-.17v43.86s41.26.43,41.26.43c11.65,0,21.72,2.58,32.24,8.17l146.86,95.21-117.06,78.6-40.8,27.4c-8.46,5.49-17.81,7.94-27.92,9.17l-37.57.15.08,44.96,92.45-.48c11.79-.06,22.09-4.43,32.13-9.79l85.39-57.56,77.02-52.33,133.83,86.82,29.68,19.62c11.3,7.47,23.46,13.19,37.51,13.28l61.61.4ZM235.47,516l26.21-57.37-21.02-.16-29.26,62.89-10.9,24.26-20.98-45.18-17.69-37.34c-2.13-4.49-9.52-5.2-13.6-4.8-8.21-.73-12.86,3.46-15.96,10.12l-36.35,78.11-40.42-88.22-31.09.49,23.43,52.36,18.16,40.85c2.78,6.26,7.75,11.88,14.98,11.87l19.93-.02c7.28,0,11.73-5.36,14.52-11.43l28.14-61.24,27.65,60.54c3,6.57,6.72,11.85,14.92,12.26l19.8-.12c6.85-.04,10.96-5.68,13.48-11.39l16.06-36.48ZM573.54,516.88c-1.45-14.6-11.66-25.43-25.5-26.92l-18.14-1.95-72.83-.03-.44-29.63-27.45.04-.06,105.63,101.76-.06c7.65,0,14.61-1.5,21.66-3.3,13.04-3.82,20.75-14.96,20.86-28.62l.13-15.16ZM290.96,533.02l116.61-.1.05-18.77c.03-10.79-7.73-19.46-17.8-22.85-8.76-2.95-17.54-3.2-26.87-3.29l-38.97-.35-16.05.09-19.29,2.13c-9.47,1.05-18.16,6.66-22.8,14.82-4.15,7.3-3.54,15.15-3.81,23.39-.32,9.74,1.29,20.08,9.49,26.46,7.61,5.92,17.61,8.99,27.74,9.04l104.51.53.79-14.88h-89.49c-12.82.01-26.05-4.72-24.09-16.23ZM107.49,652.86l-39.17-1.17c-5.05-.15-10.81-3.29-13.29-7.56-3.26-5.6-1.81-11.89-2.14-18.09-.3-5.67.08-11.55,4.98-15.22,4.42-3.3,10.45-5.58,16.46-5.61l89.16-.39c.55-5.23.35-9.9-.42-14.81l-98.04.16c-8.17.01-15.77,2.06-22.97,4.9-11.65,4.59-17.52,15.57-17.13,27.97l.62,19.45c3.77,18.9,22.08,24.89,40.82,24.93l97.15.21.03-14.52-23.62-.47-32.43.21ZM216.8,626.4c-6.54,4.29-7.92,11.63-7.87,18.63.05,8.52,3.9,15.84,12.26,18.8,5.22,1.85,11.15,3.68,17.21,3.69l117.17.13.81-14.18-.28-34.45c-.08-10.06-4.44-19.03-13.9-23.31-6.52-2.95-13.8-5.3-21.47-5.33l-103.6-.38.02,14.91,87.8.07c11.44,0,23.56,3.45,23.04,13.98-6.46,2-12.61.51-18.99.6l-21.53.32-31.41-.11-13.13.12c-8.95.08-18.19,1.26-26.14,6.48ZM524.01,604.99c10.31-.1,21.51,4.92,21.48,15.05l-.18,47.6,27.69-.25-.06-51.31c-1.15-9.85-6.69-18.41-16.23-21.61-6.26-2.1-12.79-4.24-19.83-4.25l-136.79-.19.07,77.71,27.56-.14.09-62.64,41.17-.05c2.4,0,4.06,1.77,4.01,4.16v58.84s26.79-.18,26.79-.18l.24-62.51,24-.22Z"/>
  <path class="cls-2" d="M599.94,184.04l.49-168.89.68,167.7c0,.9-.88,1.28-1.17,1.19Z"/>
  <path class="cls-2" d="M574.85,437.02l-61.61-.4c-14.06-.09-26.21-5.81-37.51-13.28l-29.68-19.62-133.83-86.82-77.02,52.33-85.39,57.56c-10.03,5.37-20.34,9.73-32.13,9.79l-92.45.48-.08-44.96,37.57-.15c10.11-1.22,19.46-3.68,27.92-9.17l40.8-27.4,117.06-78.6-146.86-95.21c-10.52-5.58-20.59-8.17-32.24-8.17l-41.25-.43v-43.86s53.83.17,53.83.17c11.27.03,20.86,4.42,31.15,8.78l67.63,43.34,107.26,69.52,114.66-75.94,52.32-34.98c10.4-4.98,21.05-10.49,33.06-10.53l87.8-.28-.18,44.57-38.71.08c-10.54,1.96-20.58,4.58-29.05,11.36l-157.22,105.54,136.9,89.49c9.8,6.6,19.96,9.93,31.66,10.7l55.61-.15v46.23Z"/>
  <path class="cls-4" d="M524.01,604.99l-24,.22-.24,62.51-26.78.18v-58.84c.04-2.39-1.62-4.16-4.02-4.16l-41.17.05-.09,62.64-27.56.14-.07-77.71,136.79.19c7.04,0,13.58,2.14,19.83,4.25,9.54,3.2,15.08,11.76,16.23,21.61l.06,51.31-27.69.25.18-47.6c.04-10.13-11.17-15.15-21.48-15.05Z"/>
  <path class="cls-4" d="M107.49,652.86l32.43-.21,23.62.47-.03,14.52-97.15-.21c-18.74-.04-37.05-6.03-40.82-24.93l-.62-19.45c-.39-12.4,5.47-23.39,17.13-27.97,7.2-2.83,14.81-4.88,22.97-4.9l98.04-.16c.76,4.9.97,9.57.42,14.81l-89.16.39c-6.01.03-12.04,2.31-16.46,5.61-4.91,3.66-5.28,9.54-4.98,15.22.32,6.2-1.12,12.49,2.14,18.09,2.48,4.27,8.24,7.41,13.29,7.56l39.17,1.17Z"/>
  <path class="cls-1" d="M419.26,70.7l-81.55.18c-2.81,3.16-1.29,8.53.93,11.74,2.48,3.57,6.62,3.73,11.4,3.72l74.79-.19.03,12.92-83.2-.57c-11.94-.08-20.74-9-20.64-20.35l.26-30.06c.05-5.74,4.83-10.92,9.81-13.98,4.63-2.84,11.07-3.74,16.88-3.75l77.51-.09-.24,12.48-77.86.31c-3.77.02-7.28,2.41-8.96,4.31-2.34,2.63-3.01,7.29-1.34,10.89l30.87.17,51.51-.14-.22,12.41Z"/>
  <path class="cls-1" d="M142.24,98.58l-65.19.17c-5.9.02-12.17-2.81-16.05-6.56-5.37-5.19-5.58-12.18-5.6-19.12l-.07-20.07c-.03-9.7,5.05-18.57,14.95-20.62l9.84-2.03,59.5.3c7.83.04,16.65,3.29,20.54,9.86,4.8,8.11,3.31,17.52,3.35,26.52.04,8.19.79,16.48-4.36,23.46-3.43,4.65-10.2,8.06-16.91,8.08ZM136.4,86.35c7.93-.03,12.33-6.49,11.71-13.24-.55-5.95-.4-11.21-.08-17.07.38-7.03-4.92-13.11-12.16-13.1l-52.82.03c-6.28,0-12.14,4.85-12.12,11.03l.04,22.92c0,4.53,3.38,8.77,8.27,8.94l18.74.63,38.43-.14Z"/>
  <path class="cls-1" d="M517.33,43.06l-38.36-.18c-7.08-.03-14.89,4.88-14.96,12.09l-.38,43.71-15.43.2.11-45.84c.03-13.56,13.43-22.46,25.94-22.48l27.71-.04c10.27-.02,20.09-.78,29.95,2.76,7.63,2.74,13.58,10.5,13.64,18.94l.34,46.66-15.37-.16-.11-43.76c-.02-6.42-6.13-11.86-13.09-11.89Z"/>
  <g>
    <path class="cls-4" d="M216.8,626.4c7.95-5.22,17.19-6.4,26.14-6.48l13.13-.12,31.41.11,21.53-.32c6.37-.1,12.52,1.4,18.99-.6.52-10.54-11.6-13.97-23.04-13.98l-87.8-.07-.02-14.91,103.6.38c7.67.03,14.95,2.38,21.47,5.33,9.46,4.28,13.81,13.24,13.9,23.31l.28,34.45-.81,14.18-117.17-.13c-6.06,0-11.99-1.84-17.21-3.69-8.36-2.96-12.21-10.28-12.26-18.8-.04-7,1.33-14.34,7.87-18.63ZM327.82,653l.13-19.15-80.39.46c-6.02.03-10.18,4.38-10.24,9.38-.07,5.28,4.13,9.09,10.21,9.11l80.29.2Z"/>
    <path class="cls-6" d="M327.82,653l-80.29-.2c-6.08-.02-10.28-3.82-10.21-9.11.06-5,4.22-9.34,10.24-9.38l80.39-.46-.13,19.15Z"/>
  </g>
  <g>
    <path class="cls-5" d="M235.47,516l-16.06,36.48c-2.51,5.71-6.63,11.35-13.48,11.39l-19.8.12c-8.19-.4-11.92-5.69-14.92-12.26l-27.65-60.54-28.14,61.24c-2.79,6.08-7.25,11.43-14.52,11.43l-19.93.02c-7.23,0-12.2-5.61-14.98-11.87l-18.16-40.85-23.43-52.36,31.09-.49,40.42,88.22,36.35-78.11c3.1-6.66,7.75-10.85,15.96-10.12,4.09-.4,11.48.31,13.6,4.8l17.69,37.34,20.98,45.18,10.9-24.26,29.26-62.89,21.02.16-26.21,57.37Z"/>
    <path class="cls-4" d="M573.54,516.88l-.13,15.16c-.12,13.66-7.83,24.8-20.86,28.62-7.05,1.8-14.01,3.3-21.66,3.3l-101.76.06.06-105.63,27.45-.04.44,29.63,72.83.03,18.14,1.95c13.84,1.49,24.04,12.32,25.5,26.92ZM543.25,541.02c3.89-5.28,3.89-24.82-.17-30.26-3.48-4.66-10.21-7.37-16.46-7.41l-69.78-.44-.06,46.25,10.89.63,34.56-.37,21.83-.29c6.84-.09,14.89-2.28,19.19-8.11Z"/>
    <path class="cls-6" d="M543.25,541.02c-4.3,5.83-12.35,8.02-19.19,8.11l-21.83.29-34.56.37-10.89-.63.06-46.25,69.78.44c6.25.04,12.98,2.75,16.46,7.41,4.06,5.44,4.06,24.98.17,30.26Z"/>
    <g>
      <path class="cls-4" d="M290.96,533.02c-1.96,11.52,11.27,16.25,24.09,16.25h89.49s-.79,14.87-.79,14.87l-104.51-.53c-10.13-.05-20.12-3.12-27.74-9.04-8.21-6.39-9.81-16.72-9.49-26.46.27-8.24-.33-16.09,3.81-23.39,4.64-8.16,13.33-13.77,22.8-14.82l19.29-2.13,16.05-.09,38.97.35c9.33.08,18.11.33,26.87,3.29,10.07,3.4,17.83,12.07,17.8,22.85l-.05,18.77-116.61.1ZM376.5,507.51c-3.67-2.86-8.72-4.37-13.57-4.38l-53.94-.05c-9.44,0-19.88,5.72-18.92,16.02l89.81-.06c.89-4.18-.01-8.91-3.39-11.54Z"/>
      <path class="cls-6" d="M376.5,507.51c3.38,2.63,4.28,7.36,3.39,11.54l-89.81.06c-.96-10.3,9.48-16.03,18.92-16.02l53.94.05c4.85,0,9.89,1.52,13.57,4.38Z"/>
    </g>
  </g>
  <path class="cls-3" d="M136.4,86.35l-38.43.14-18.74-.63c-4.9-.17-8.27-4.41-8.27-8.94l-.04-22.92c-.01-6.18,5.85-11.02,12.12-11.03l52.82-.03c7.24,0,12.54,6.07,12.16,13.1-.32,5.86-.46,11.12.08,17.07.62,6.74-3.78,13.21-11.71,13.24Z"/>
  <g>
    <path class="cls-1" d="M297.59,60.49c-3.01,7.54-10.98,12.28-18.62,12.32l-72.93.34-.67,25.54-15.31.18.03-68.64,86.79.18c7.19.02,17.23,4.51,19.76,9.81,2.73,5.72,3.54,13.76.94,20.27ZM276.06,60.74c5.85-.04,8.5-6.16,8-10.11-.57-4.47-3.97-7.79-9.18-7.78l-69.56.09-.23,18.25,70.98-.44Z"/>
    <path class="cls-6" d="M276.06,60.74l-70.98.44.23-18.25,69.56-.09c5.22,0,8.61,3.32,9.18,7.78.51,3.95-2.14,10.07-8,10.11Z"/>
  </g>
</svg>